<?xml version="1.0" encoding="UTF-8"?>
<svg width="39px" height="47px" viewBox="0 0 39 47" version="1.1" xmlns="http://www.w3.org/2000/svg" xmlns:xlink="http://www.w3.org/1999/xlink">
    <!-- Generator: Sketch 64 (93537) - https://sketch.com -->
    <title>logo</title>
    <desc>Created with Sketch.</desc>
    <defs>
        <path d="M9.2687875,28.4515304 C17.83495,29.0211217 25.275775,21.6081681 25.8883625,11.8942058 C26.1676625,7.46506957 24.978625,3.32275072 22.7906875,0.0720637681 C26.2444,3.53283188 28.2809625,8.72007536 27.9244,14.3749246 C27.3119,24.0887971 19.871075,31.5017507 11.304825,30.9321594 C6.6444875,30.6223391 2.6116125,28.0131275 0.00105,24.1343536 C2.4801875,26.6185768 5.68925,28.2135043 9.2687875,28.4515304" id="path-1"></path>
        <path d="M3.48786667,0.0779210526 L3.72558667,1.66277632 C3.85121333,2.50010526 4.51742667,3.15764474 5.36592,3.28152632 L6.97190667,3.51611842 L5.36592,3.75071053 C4.51742667,3.87468421 3.85121333,4.53213158 3.72558667,5.36946053 L3.48786667,6.95440789 L3.25014667,5.36946053 C3.12461333,4.53213158 2.45830667,3.87468421 1.60981333,3.75071053 L0.00382666667,3.51611842 L1.60981333,3.28152632 C2.45830667,3.15764474 3.12461333,2.50010526 3.25014667,1.66277632 L3.48786667,0.0779210526" id="path-3"></path>
        <path d="M24.571604,10.7612065 C23.473604,13.3056397 21.8593069,15.4169838 19.9479208,16.9961619 C20.2378812,15.7329312 20.0176931,14.2780648 19.2327327,13.0165101 C17.8287327,10.7601822 15.1511881,9.97706478 13.2522772,11.2672996 C11.3533663,12.5576275 10.9520198,15.4327206 12.3561089,17.6890486 C12.9702475,18.676 13.828099,19.381085 14.7577723,19.7541134 C11.9694653,20.5425385 9.00178218,20.3886154 6.27086139,19.1016397 C3.45136634,17.7730405 1.33119802,15.4469676 0.0627326733,12.6215061 C1.026,16.6341215 3.51187129,20.0542308 7.18271287,21.7840729 C13.9299505,24.9636599 22.1235149,21.2294656 25.4834554,13.4435466 C27.4394851,8.9111498 27.3255149,4.00525911 25.558396,0.069 C26.3656337,3.43202834 26.1035644,7.21119838 24.571604,10.7612065" id="path-5"></path>
    </defs>
    <g id="Page-1" stroke="none" stroke-width="1" fill="none" fill-rule="evenodd">
        <g id="Desktop" transform="translate(-493.000000, -3696.000000)">
            <g id="detailed" transform="translate(0.000000, 64.000000)">
                <g id="footer" transform="translate(0.000000, 3629.000000)">
                    <g id="logo" transform="translate(493.000000, 3.000000)">
                        <path d="M31.487027,11.2247923 C32.4091267,12.77944 33.113866,14.475135 33.5850976,16.2607212 C35.7614825,19.2586878 37.0500359,22.9749556 37.0500359,27 C37.0500359,36.9411153 29.1925874,45.0000368 19.5,45.0000368 C9.80741257,45.0000368 1.94996412,36.9411153 1.94996412,27 C1.94996412,17.0588847 9.80741257,8.9999632 19.5,8.9999632 C22.8040934,8.9999632 25.8944147,9.9371498 28.5334194,11.5654034 C28.0693643,10.4635237 27.5227787,9.42696919 26.9133084,8.4975112 C24.6275705,7.53318244 22.1247412,7 19.5,7 C8.73038864,7 0,15.9543368 0,27 C0,38.0456632 8.73038864,47 19.5,47 C30.2696114,47 39,38.0456632 39,27 C39,20.5900338 36.0595793,14.8849356 31.487027,11.2247923" id="Fill-1" fill="#FFFFFF"></path>
                        <g id="Group-4" transform="translate(6.000000, 9.000000)">
                            <mask id="mask-2" fill="white">
                                <use xlink:href="#path-1"></use>
                            </mask>
                            <g id="Clip-3"></g>
                            <path d="M9.2687875,28.4515304 C17.83495,29.0211217 25.275775,21.6081681 25.8883625,11.8942058 C26.1676625,7.46506957 24.978625,3.32275072 22.7906875,0.0720637681 C26.2444,3.53283188 28.2809625,8.72007536 27.9244,14.3749246 C27.3119,24.0887971 19.871075,31.5017507 11.304825,30.9321594 C6.6444875,30.6223391 2.6116125,28.0131275 0.00105,24.1343536 C2.4801875,26.6185768 5.68925,28.2135043 9.2687875,28.4515304" id="Fill-2" fill="#FFFFFF" mask="url(#mask-2)"></path>
                        </g>
                        <g id="Group-7" transform="translate(24.000000, 0.000000)">
                            <mask id="mask-4" fill="white">
                                <use xlink:href="#path-3"></use>
                            </mask>
                            <g id="Clip-6"></g>
                            <path d="M3.48786667,0.0779210526 L3.72558667,1.66277632 C3.85121333,2.50010526 4.51742667,3.15764474 5.36592,3.28152632 L6.97190667,3.51611842 L5.36592,3.75071053 C4.51742667,3.87468421 3.85121333,4.53213158 3.72558667,5.36946053 L3.48786667,6.95440789 L3.25014667,5.36946053 C3.12461333,4.53213158 2.45830667,3.87468421 1.60981333,3.75071053 L0.00382666667,3.51611842 L1.60981333,3.28152632 C2.45830667,3.15764474 3.12461333,2.50010526 3.25014667,1.66277632 L3.48786667,0.0779210526" id="Fill-5" fill="#FFFFFF" mask="url(#mask-4)"></path>
                        </g>
                        <path d="M33,9 L33.0682124,9.46096202 C33.1042721,9.70447704 33.295523,9.89572792 33.539038,9.93178761 L34,10 L33.539038,10.0682124 C33.295523,10.1042721 33.1042721,10.295523 33.0682124,10.539038 L33,11 L32.9317876,10.539038 C32.8957279,10.295523 32.704477,10.1042721 32.460962,10.0682124 L32,10 L32.460962,9.93178761 C32.704477,9.89572792 32.8957279,9.70447704 32.9317876,9.46096202 L33,9" id="Fill-8" fill="#FFFFFF"></path>
                        <path d="M23,9 L23.1364456,9.92185935 C23.2084753,10.4089361 23.5909637,10.7914246 24.0780405,10.8635544 L25,11 L24.0780405,11.1364456 C23.5909637,11.2085754 23.2084753,11.5909637 23.1364456,12.0780405 L23,13 L22.8635544,12.0780405 C22.7914246,11.5909637 22.4090363,11.2085754 21.9218593,11.1364456 L21,11 L21.9218593,10.8635544 C22.4090363,10.7914246 22.7914246,10.4089361 22.8635544,9.92185935 L23,9" id="Fill-9" fill="#FFFFFF"></path>
                        <g id="Group-12" transform="translate(5.000000, 13.000000)">
                            <mask id="mask-6" fill="white">
                                <use xlink:href="#path-5"></use>
                            </mask>
                            <g id="Clip-11"></g>
                            <path d="M24.571604,10.7612065 C23.473604,13.3056397 21.8593069,15.4169838 19.9479208,16.9961619 C20.2378812,15.7329312 20.0176931,14.2780648 19.2327327,13.0165101 C17.8287327,10.7601822 15.1511881,9.97706478 13.2522772,11.2672996 C11.3533663,12.5576275 10.9520198,15.4327206 12.3561089,17.6890486 C12.9702475,18.676 13.828099,19.381085 14.7577723,19.7541134 C11.9694653,20.5425385 9.00178218,20.3886154 6.27086139,19.1016397 C3.45136634,17.7730405 1.33119802,15.4469676 0.0627326733,12.6215061 C1.026,16.6341215 3.51187129,20.0542308 7.18271287,21.7840729 C13.9299505,24.9636599 22.1235149,21.2294656 25.4834554,13.4435466 C27.4394851,8.9111498 27.3255149,4.00525911 25.558396,0.069 C26.3656337,3.43202834 26.1035644,7.21119838 24.571604,10.7612065" id="Fill-10" fill="#FFFFFF" mask="url(#mask-6)"></path>
                        </g>
                    </g>
                </g>
            </g>
        </g>
    </g>
</svg>